<svg width="22" height="23" viewBox="0 0 22 23" fill="none" xmlns="http://www.w3.org/2000/svg">
<path d="M11 0.5C4.93457 0.5 0 5.43457 0 11.5C0 17.5654 4.93457 22.5 11 22.5C17.0654 22.5 22 17.5654 22 11.5C22 5.43457 17.0654 0.5 11 0.5ZM11 21.4688C5.50322 21.4688 1.03125 16.9968 1.03125 11.5C1.03125 6.00322 5.50322 1.53125 11 1.53125C16.4968 1.53125 20.9688 6.00322 20.9688 11.5C20.9688 16.9968 16.4968 21.4688 11 21.4688ZM16.7529 13.5008C16.7529 13.5008 16.7529 13.5008 16.7529 13.5008L14.7321 12.3342C14.4227 12.1555 14.0617 12.1082 13.7155 12.2009C13.3694 12.2936 13.0804 12.5151 12.9018 12.8246C12.7981 13.0042 12.6166 13.2301 12.3404 13.2865C12.0885 13.338 11.8662 13.2881 11.6606 13.1338C10.9012 12.5639 9.93627 11.599 9.36624 10.8394C9.21198 10.6339 9.16201 10.4115 9.21353 10.1597C9.26999 9.88343 9.49588 9.70193 9.67545 9.59829C10.3153 9.2288 10.5353 8.40771 10.1659 7.76786L8.9992 5.74704C8.66504 5.16834 7.971 4.92561 7.34912 5.1698L7.32493 5.1793C6.35925 5.55841 5.6531 5.84935 5.36108 6.14137C4.83063 6.67186 4.29335 7.65898 4.74628 9.34933C5.62598 12.6325 9.86747 16.874 13.1507 17.7538C13.5965 17.8732 13.9933 17.9238 14.3458 17.9238C15.33 17.9238 15.9681 17.5295 16.3587 17.139C16.6507 16.847 16.9415 16.141 17.3206 15.1755L17.3303 15.151C17.5744 14.529 17.3316 13.835 16.7529 13.5008ZM16.3702 14.774L16.3606 14.7987C16.1777 15.2645 15.7972 16.2337 15.6294 16.4097C15.1372 16.902 14.393 17.019 13.4175 16.7577C10.4757 15.9694 6.53048 12.0242 5.74226 9.08241C5.48088 8.10697 5.59793 7.36275 6.08966 6.87106C6.2663 6.70271 7.23577 6.32214 7.70163 6.13926L7.72587 6.12972C7.76294 6.11499 7.80246 6.10738 7.84236 6.10729C7.94887 6.10729 8.04852 6.16324 8.10597 6.26271L9.27266 8.28349C9.35773 8.43091 9.30707 8.62006 9.15969 8.70514C8.64682 9.00124 8.30711 9.44442 8.20308 9.95304C8.09222 10.4952 8.20918 11.0157 8.54133 11.4584C9.1725 12.2994 10.2006 13.3275 11.0416 13.9586C11.4841 14.2907 12.0047 14.4077 12.5469 14.2968C13.0555 14.1928 13.4987 13.8531 13.7948 13.3402C13.8151 13.3051 13.8421 13.2744 13.8743 13.2498C13.9065 13.2252 13.9432 13.2073 13.9824 13.197C14.0215 13.1863 14.0623 13.1835 14.1025 13.1887C14.1427 13.1939 14.1814 13.207 14.2165 13.2272L16.2372 14.3939C16.3727 14.4722 16.4274 14.6285 16.3702 14.774Z" fill="#e90000"/>
</svg>
