<svg width="19" height="20" viewBox="0 0 19 20" fill="none" xmlns="http://www.w3.org/2000/svg">
<path d="M9.95976 15.1853C10.4451 15.1802 10.8345 14.7826 10.8294 14.2972C10.8243 13.8118 10.4267 13.4225 9.94136 13.4276C9.45598 13.4326 9.06662 13.8302 9.0717 14.3156C9.07678 14.801 9.47438 15.1904 9.95976 15.1853Z" fill="#004C8F"/>
<path d="M9.81201 1.00053C4.83823 1.05259 0.854628 5.11979 0.906693 10.0942C0.958751 15.068 5.02595 19.0516 10.0004 18.9995C14.9742 18.9475 18.9578 14.8803 18.9057 9.90585C18.8536 4.93207 14.7864 0.948468 9.81201 1.00053ZM9.98568 17.5934C5.78906 17.6373 2.3568 14.2767 2.31287 10.0795C2.26894 5.8829 5.62954 2.45064 9.82672 2.40671C14.0233 2.36278 17.4556 5.72338 17.4995 9.92056C17.5435 14.1172 14.1829 17.5494 9.98568 17.5934Z" fill="#004C8F"/>
<path d="M9.85922 5.51793C8.30849 5.53416 7.06008 6.80898 7.07631 8.35971C7.08037 8.74802 7.39844 9.0595 7.78676 9.05544C8.17507 9.05137 8.48655 8.73331 8.48248 8.34499C8.47437 7.56963 9.09857 6.93222 9.87394 6.9241C10.6493 6.91599 11.2867 7.54019 11.2948 8.31556C11.3029 9.09092 10.6787 9.72833 9.90337 9.73645C9.51506 9.74051 9.20358 10.0586 9.20765 10.4469L9.22604 12.2046C9.23011 12.5929 9.54817 12.9044 9.93649 12.9003C10.3248 12.8963 10.6363 12.5782 10.6322 12.1899L10.6202 11.0463C11.8286 10.7206 12.7147 9.6089 12.701 8.30084C12.6848 6.75011 11.4099 5.5017 9.85922 5.51793Z" fill="#004C8F"/>
</svg>
