<svg width="19" height="26" viewBox="0 0 19 26" fill="none" xmlns="http://www.w3.org/2000/svg">
<path d="M16.2747 11.056C15.9975 11.0557 15.7228 11.1082 15.4652 11.2105C15.2109 10.2784 14.3567 9.59119 13.3451 9.59119C13.0679 9.5909 12.7932 9.64333 12.5356 9.74569C12.4171 9.31121 12.168 8.93006 11.8337 8.64676C12.3403 7.83754 12.6128 6.89911 12.6128 5.92914C12.6128 3.10214 10.3128 0.802246 7.48588 0.802246C4.65893 0.802246 2.35898 3.10214 2.35898 5.92914C2.35898 7.92064 3.51713 9.72064 5.28861 10.5616V14.7551L4.9038 14.3704C3.90444 13.3711 2.27832 13.371 1.27886 14.3704C0.279444 15.3698 0.279444 16.996 1.27886 17.9954L5.40478 22.1213L6.8142 25.3619C6.8711 25.4928 6.96497 25.6041 7.0843 25.6824C7.20362 25.7606 7.3432 25.8022 7.48588 25.8022L16.2779 25.8019C16.4316 25.8019 16.5815 25.7535 16.7063 25.6635C16.831 25.5735 16.9242 25.4466 16.9728 25.3006C17.9536 22.3522 18.472 19.1173 18.472 15.9461V13.2532C18.4719 12.0417 17.4863 11.056 16.2747 11.056ZM5.28861 5.92914V8.85892C4.38447 8.17899 3.82377 7.10038 3.82377 5.92914C3.82377 3.90991 5.46659 2.26709 7.48583 2.26709C9.50506 2.26709 11.1479 3.90991 11.1479 5.92914C11.1479 6.72709 10.8898 7.49496 10.4155 8.12635C10.1659 8.12611 9.91824 8.16856 9.68304 8.25184V5.92914C9.68304 4.71757 8.69735 3.73193 7.48583 3.73193C6.27426 3.73188 5.28861 4.71757 5.28861 5.92914ZM17.0072 15.9461C17.0072 18.7832 16.5713 21.6726 15.744 24.3371L7.966 24.3373L6.69266 21.4096C6.65604 21.3253 6.60388 21.2487 6.5389 21.1838L2.31465 16.9596C1.88511 16.53 1.88506 15.8358 2.31465 15.4062C2.74419 14.9766 3.43847 14.9765 3.86806 15.4062L5.50312 17.0412C5.60555 17.1437 5.73605 17.2134 5.87814 17.2417C6.02022 17.27 6.16749 17.2555 6.30132 17.2C6.43516 17.1446 6.54955 17.0507 6.63003 16.9302C6.71051 16.8098 6.75346 16.6682 6.75345 16.5233V5.92914C6.75345 5.52528 7.08202 5.19672 7.48588 5.19672C7.88973 5.19672 8.2183 5.52528 8.2183 5.92914V13.2532C8.2183 13.6577 8.54622 13.9857 8.95072 13.9857C9.35521 13.9857 9.68314 13.6577 9.68314 13.2532V10.3236C9.68314 9.91976 10.0117 9.59119 10.4156 9.59119C10.8194 9.59119 11.148 9.91976 11.148 10.3236V13.2532C11.148 13.6577 11.4759 13.9857 11.8804 13.9857C12.2849 13.9857 12.6128 13.6577 12.6128 13.2532V11.7884C12.6128 11.3845 12.9413 11.056 13.3452 11.056C13.7491 11.056 14.0777 11.3845 14.0777 11.7884V13.2532C14.0777 13.6577 14.4056 13.9857 14.8101 13.9857C15.2146 13.9857 15.5425 13.6577 15.5425 13.2532C15.5425 12.8494 15.8711 12.5208 16.2749 12.5208C16.6788 12.5208 17.0073 12.8494 17.0073 13.2532V15.9461H17.0072Z" fill="#004C8F"/>
</svg>
