<svg width="25" height="23" viewBox="0 0 25 23" fill="none" xmlns="http://www.w3.org/2000/svg">
<path d="M23.3333 6.7778H21.6389C20.25 2.94447 16.6111 0.388916 12.5 0.388916C8.38889 0.388916 4.75 2.94447 3.36111 6.7778H1.66667C0.75 6.7778 0 7.5278 0 8.44447V11.7778C0 12.6945 0.75 13.4445 1.66667 13.4445H3.75C3.91667 13.4445 4.08333 13.3611 4.19444 13.2222C4.30556 13.0834 4.33333 12.8889 4.27778 12.7222C4 11.8889 3.86111 11 3.86111 10.1111C3.86111 9.22225 4 8.33336 4.27778 7.50003C5.44444 3.91669 8.72222 1.50003 12.5 1.50003C16.2778 1.50003 19.5556 3.91669 20.6944 7.50003C20.9722 8.33336 21.1111 9.22225 21.1111 10.1111C21.1111 11 20.9722 11.8889 20.6944 12.7222C19.5556 16.3056 16.2778 18.7222 12.5 18.7222H8.33333C7.25 18.7222 6.38889 19.5834 6.38889 20.6667C6.38889 21.75 7.25 22.6111 8.33333 22.6111H11.1111C12.1944 22.6111 13.0556 21.75 13.0556 20.6667V19.8056C16.9444 19.5834 20.3056 17.1111 21.6389 13.4445H23.3333C24.25 13.4445 25 12.6945 25 11.7778V8.44447C25 7.5278 24.25 6.7778 23.3333 6.7778ZM3.02778 12.3334H1.66667C1.36111 12.3334 1.11111 12.0834 1.11111 11.7778V8.44447C1.11111 8.13892 1.36111 7.88892 1.66667 7.88892H3.02778C2.86111 8.61114 2.77778 9.36114 2.77778 10.1111C2.77778 10.8611 2.86111 11.6111 3.02778 12.3334ZM11.9444 20.6667C11.9444 21.1389 11.5833 21.5 11.1111 21.5H8.33333C7.86111 21.5 7.5 21.1389 7.5 20.6667C7.5 20.1945 7.86111 19.8334 8.33333 19.8334H11.9444V20.6667ZM23.8889 11.7778C23.8889 12.0834 23.6389 12.3334 23.3333 12.3334H21.9722C22.1389 11.6111 22.2222 10.8611 22.2222 10.1111C22.2222 9.36114 22.1389 8.61114 21.9722 7.88892H23.3333C23.6389 7.88892 23.8889 8.13892 23.8889 8.44447V11.7778ZM19.4444 10.1111C19.4444 6.2778 16.3333 3.16669 12.5 3.16669C8.66667 3.16669 5.55556 6.2778 5.55556 10.1111C5.55556 11.7778 6.13889 13.3611 7.22222 14.6111L5.72222 16.1111C5.55556 16.2778 5.52778 16.5 5.61111 16.7222C5.69445 16.9167 5.88889 17.0556 6.11111 17.0556H12.5C16.3333 17.0556 19.4444 13.9445 19.4444 10.1111ZM8.38889 14.2222C7.27778 13.1111 6.66667 11.6667 6.66667 10.1111C6.66667 6.88892 9.27778 4.2778 12.5 4.2778C15.7222 4.2778 18.3333 6.88892 18.3333 10.1111C18.3333 13.3334 15.7222 15.9445 12.5 15.9445H7.44444L8.36111 15.0278C8.58333 14.8056 8.58333 14.4445 8.38889 14.2222ZM11.9444 10.1111C11.9444 9.80558 12.1944 9.55558 12.5 9.55558C12.8056 9.55558 13.0556 9.80558 13.0556 10.1111C13.0556 10.4167 12.8056 10.6667 12.5 10.6667C12.1944 10.6667 11.9444 10.4167 11.9444 10.1111ZM14.7222 10.1111C14.7222 9.80558 14.9722 9.55558 15.2778 9.55558C15.5833 9.55558 15.8333 9.80558 15.8333 10.1111C15.8333 10.4167 15.5833 10.6667 15.2778 10.6667C14.9722 10.6667 14.7222 10.4167 14.7222 10.1111ZM9.16667 10.1111C9.16667 9.80558 9.41667 9.55558 9.72222 9.55558C10.0278 9.55558 10.2778 9.80558 10.2778 10.1111C10.2778 10.4167 10.0278 10.6667 9.72222 10.6667C9.41667 10.6667 9.16667 10.4167 9.16667 10.1111Z" fill="#004C8F"/>
</svg>
