<svg width="22" height="22" viewBox="0 0 22 22" fill="none" xmlns="http://www.w3.org/2000/svg">
<path d="M21.7312 20.4353L15.475 14.1791C16.6868 12.6822 17.4165 10.7801 17.4165 8.70851C17.4165 3.90705 13.5097 0.000244141 8.70822 0.000244141C3.90677 0.000244141 0 3.90701 0 8.70846C0 13.5099 3.90681 17.4167 8.70826 17.4167C10.7799 17.4167 12.682 16.6871 14.1789 15.4752L20.4351 21.7314C20.6138 21.9102 20.8484 22 21.0831 22C21.3178 22 21.5525 21.9102 21.7312 21.7314C22.0896 21.373 22.0896 20.7937 21.7312 20.4353ZM8.70826 15.5834C4.91695 15.5834 1.83333 12.4998 1.83333 8.70846C1.83333 4.91715 4.91695 1.83353 8.70826 1.83353C12.4996 1.83353 15.5832 4.91715 15.5832 8.70846C15.5832 12.4998 12.4995 15.5834 8.70826 15.5834Z" fill="white"/>
</svg>
