<svg width="25" height="25" viewBox="0 0 25 25" fill="none" xmlns="http://www.w3.org/2000/svg">
<path d="M12.4998 24.8022H12.4949C10.5444 24.8015 8.61055 24.341 6.87754 23.4674L1.5354 24.6826C1.20947 24.7566 0.868018 24.6588 0.630762 24.4232C0.393506 24.1876 0.293359 23.847 0.365088 23.5205L1.52266 18.2588C0.528125 16.4223 0.00307617 14.4108 0.000195313 12.4163C0 12.4094 0 12.4025 0 12.3959C0.00131836 9.09062 1.30845 5.97783 3.68022 3.63101C6.04668 1.28955 9.17876 0 12.4996 0C15.8279 0.00131836 18.9551 1.29199 21.3059 3.63408C23.6893 6.00874 25.0012 9.12397 25 12.4058C24.999 14.8859 24.2554 17.2829 22.8495 19.3373C22.5449 19.7825 21.9372 19.8963 21.492 19.5917C21.047 19.2871 20.933 18.6794 21.2375 18.2343C22.4203 16.5058 23.0459 14.4901 23.0469 12.405C23.0479 9.64644 21.94 7.02285 19.9274 5.01768C17.9451 3.04258 15.307 1.95425 12.4992 1.95312C6.69268 1.95312 1.96533 6.62803 1.95312 12.3783C1.95312 12.3846 1.95332 12.3907 1.95332 12.3968C1.95254 14.1768 2.45322 15.9815 3.40098 17.6159C3.52362 17.8273 3.56247 18.077 3.50986 18.3157L2.60337 22.4365L6.79478 21.4831C7.02618 21.4306 7.26878 21.464 7.47739 21.5771C9.00884 22.4085 10.744 22.8483 12.4953 22.8491H12.4997C14.4038 22.8491 16.2726 22.3347 17.9083 21.36C18.3714 21.0836 18.9709 21.2353 19.2471 21.6986C19.5233 22.1619 19.3718 22.7611 18.9085 23.0375C16.9703 24.1925 14.7559 24.8022 12.4997 24.8022L12.4998 24.8022ZM9.7418 7.43257C9.52759 6.95801 9.30215 6.9418 9.09844 6.93359H8.55044C8.35972 6.93359 8.04995 7.00488 7.78809 7.29004C7.52603 7.5752 6.7873 8.26455 6.7873 9.66665C6.7873 11.0688 7.81191 12.4237 7.95479 12.6141C8.09785 12.804 9.93291 15.7732 12.8389 16.9155C15.2542 17.8648 15.7458 17.676 16.2699 17.6283C16.7942 17.581 17.9617 16.9392 18.1997 16.2737C18.4381 15.6084 18.4381 15.0381 18.3666 14.9189C18.2953 14.8002 18.1045 14.729 17.8187 14.5864C17.5325 14.4439 16.1312 13.7427 15.8691 13.6477C15.6071 13.5527 15.4165 13.5052 15.2258 13.7905C15.0351 14.0755 14.4735 14.7345 14.3066 14.9244C14.1399 15.115 13.973 15.1386 13.6871 14.9962C13.4012 14.8531 12.4897 14.547 11.3974 13.5763C10.5473 12.8208 9.95752 11.8576 9.79062 11.5723C9.62373 11.2873 9.77271 11.1328 9.91611 10.9907C10.0445 10.8631 10.2183 10.6886 10.3613 10.5223C10.504 10.356 10.5448 10.2371 10.6399 10.047C10.7353 9.85679 10.6876 9.69048 10.6163 9.5478C10.5448 9.40532 9.99585 7.996 9.7416 7.43257" fill="#3E9E2E"/>
</svg>
